<svg width="100" height="100" viewBox="0 0 100 100" fill="none" xmlns="http://www.w3.org/2000/svg">
<path d="M0 13C0 5.8203 5.8203 0 13 0H87C94.1797 0 100 5.8203 100 13V87C100 94.1797 94.1797 100 87 100H13C5.8203 100 0 94.1797 0 87V13Z" fill="#6366F1"/>
<path d="M41.5322 40.048C42.6842 38.1707 44.1776 36.6987 46.0123 35.632C47.8896 34.5653 50.0229 34.032 52.4123 34.032V43.44H50.0443C47.2283 43.44 45.0949 44.1013 43.6442 45.424C42.2362 46.7467 41.5322 49.0507 41.5322 52.336V70H32.5723V34.544H41.5322V40.048Z" fill="white"/>
<path d="M62.9912 30.32C61.4126 30.32 60.0899 29.8293 59.0233 28.848C57.9993 27.824 57.4873 26.5653 57.4873 25.072C57.4873 23.5787 57.9993 22.3413 59.0233 21.36C60.0899 20.336 61.4126 19.824 62.9912 19.824C64.5699 19.824 65.8712 20.336 66.8952 21.36C67.9619 22.3413 68.4953 23.5787 68.4953 25.072C68.4953 26.5653 67.9619 27.824 66.8952 28.848C65.8712 29.8293 64.5699 30.32 62.9912 30.32ZM67.4072 34.544V70H58.4473V34.544H67.4072Z" fill="white"/>
</svg>
