<svg width="180" height="100" viewBox="0 0 180 100" fill="none" xmlns="http://www.w3.org/2000/svg">
<path d="M0 13C0 5.8203 5.8203 0 13 0H167C174.18 0 180 5.8203 180 13V87C180 94.1797 174.18 100 167 100H13C5.8203 100 0 94.1797 0 87V13Z" fill="#6366F1"/>
<path d="M26.8135 40.048C27.9655 38.1707 29.4588 36.6987 31.2935 35.632C33.1708 34.5653 35.3042 34.032 37.6935 34.032V43.44H35.3255C32.5095 43.44 30.3762 44.1013 28.9255 45.424C27.5175 46.7467 26.8135 49.0507 26.8135 52.336V70H17.8535V34.544H26.8135V40.048Z" fill="white"/>
<path d="M77.2005 34.544V70H68.1765V65.52C67.0245 67.056 65.5098 68.272 63.6325 69.168C61.7978 70.0213 59.7925 70.448 57.6165 70.448C54.8432 70.448 52.3898 69.872 50.2565 68.72C48.1232 67.5253 46.4378 65.7973 45.2005 63.536C44.0058 61.232 43.4085 58.5013 43.4085 55.344V34.544H52.3685V54.064C52.3685 56.88 53.0725 59.056 54.4805 60.592C55.8885 62.0853 57.8085 62.832 60.2405 62.832C62.7152 62.832 64.6565 62.0853 66.0645 60.592C67.4725 59.056 68.1765 56.88 68.1765 54.064V34.544H77.2005Z" fill="white"/>
<path d="M105.689 34.032C109.913 34.032 113.326 35.376 115.929 38.064C118.532 40.7093 119.833 44.4213 119.833 49.2V70H110.873V50.416C110.873 47.6 110.169 45.4453 108.761 43.952C107.353 42.416 105.433 41.648 103.001 41.648C100.526 41.648 98.5637 42.416 97.113 43.952C95.705 45.4453 95.001 47.6 95.001 50.416V70H86.041V34.544H95.001V38.96C96.1957 37.424 97.7103 36.2293 99.545 35.376C101.422 34.48 103.47 34.032 105.689 34.032Z" fill="white"/>
<path d="M132.898 30.32C131.319 30.32 129.996 29.8293 128.93 28.848C127.906 27.824 127.394 26.5653 127.394 25.072C127.394 23.5787 127.906 22.3413 128.93 21.36C129.996 20.336 131.319 19.824 132.898 19.824C134.476 19.824 135.777 20.336 136.801 21.36C137.868 22.3413 138.402 23.5787 138.402 25.072C138.402 26.5653 137.868 27.824 136.801 28.848C135.777 29.8293 134.476 30.32 132.898 30.32ZM137.314 34.544V70H128.354V34.544H137.314Z" fill="white"/>
<path d="M156.598 41.904V59.056C156.598 60.2507 156.875 61.1253 157.43 61.68C158.027 62.192 159.009 62.448 160.374 62.448H164.534V70H158.902C151.35 70 147.574 66.3307 147.574 58.992V41.904H143.35V34.544H147.574V25.776H156.598V34.544H164.534V41.904H156.598Z" fill="white"/>
</svg>
